# xmcd
#
# Track frame offsets: 
#        150
#        11626
#        30268
#        55540
#        77478
#        90888
#        113509
#        129196
#        139169
#        159095
#        178505
#        194524
#        212516
#        224111
#        249386
#        259842
#
# Disc length: 3656 seconds
#
# Revision: 0
# Processed by: cddbd v1.5.2PL0 Copyright (c) Steve Scherf et al.
# Submitted via: ExactAudioCopy v0.99pb5
#
DISCID=c30e4610
DTITLE=Paul Mauriat - The Best Of Love Song CD2
DYEAR=2004
DGENRE=Instrumental
TTITLE0=MINUETTO
TTITLE1=Liebestraum (Liszt)
TTITLE2=Grande Valse Brillante,OP.18 (Chopin)
TTITLE3=SCHINDLER'S LIST
TTITLE4=LARA'S THEME (from DR.ZHIVAGO)
TTITLE5=Invitation To The Dance (Weber)
TTITLE6=COLORS OF THE WIND (from POCAHONTAS)
TTITLE7=Traumerei (Schumann)
TTITLE8=ANGELIC DEMON
TTITLE9=Andante from PianoConcerto No.21(Mozart)
TTITLE10=LE PIANO SUR LA VAGUE
TTITLE11=ADAGIO
TTITLE12=Intermezzo from"Carmen" (Bizet)
TTITLE13=Valse Triste (Sibelius)
TTITLE14=Prelude from "La Traviata"(Verdi)
TTITLE15=Entracte from "L'Arlesienne"(Bizet)
EXTD=
EXTT0=
EXTT1=
EXTT2=
EXTT3=
EXTT4=
EXTT5=
EXTT6=
EXTT7=
EXTT8=
EXTT9=
EXTT10=
EXTT11=
EXTT12=
EXTT13=
EXTT14=
EXTT15=
PLAYORDER=
